<svg width="126" height="44" viewBox="0 0 126 44" fill="none" xmlns="http://www.w3.org/2000/svg">
<path d="M59.2955 34H63.5114V26.1364H67.9659C73.3409 26.1364 76.2273 22.9091 76.2273 18.4318C76.2273 13.9886 73.375 10.7273 68.0227 10.7273H59.2955V34ZM63.5114 22.6705V14.25H67.375C70.5341 14.25 71.9318 15.9545 71.9318 18.4318C71.9318 20.9091 70.5341 22.6705 67.3977 22.6705H63.5114ZM87.1847 34.3409C91.2528 34.3409 94.0483 32.3523 94.7756 29.3182L90.9347 28.8864C90.3778 30.3636 89.0142 31.1364 87.2415 31.1364C84.5824 31.1364 82.821 29.3864 82.7869 26.3977H94.946V25.1364C94.946 19.0114 91.2642 16.3182 86.9688 16.3182C81.9688 16.3182 78.7074 19.9886 78.7074 25.375C78.7074 30.8523 81.9233 34.3409 87.1847 34.3409ZM82.7983 23.625C82.9233 21.3977 84.571 19.5227 87.0256 19.5227C89.3892 19.5227 90.9801 21.25 91.0028 23.625H82.7983ZM107.142 16.5455H103.699V12.3636H99.5852V16.5455H97.108V19.7273H99.5852V29.4318C99.5625 32.7159 101.949 34.3295 105.04 34.2386C106.21 34.2045 107.017 33.9773 107.46 33.8295L106.767 30.6136C106.54 30.6705 106.074 30.7727 105.562 30.7727C104.528 30.7727 103.699 30.4091 103.699 28.75V19.7273H107.142V16.5455ZM124.128 21.1591C123.56 18.2045 121.196 16.3182 117.105 16.3182C112.901 16.3182 110.037 18.3864 110.048 21.6136C110.037 24.1591 111.605 25.8409 114.957 26.5341L117.935 27.1591C119.537 27.5114 120.287 28.1591 120.287 29.1477C120.287 30.3409 118.991 31.2386 117.037 31.2386C115.151 31.2386 113.923 30.4205 113.571 28.8523L109.56 29.2386C110.071 32.4432 112.764 34.3409 117.048 34.3409C121.412 34.3409 124.491 32.0795 124.503 28.7727C124.491 26.2841 122.889 24.7614 119.594 24.0455L116.616 23.4091C114.844 23.0114 114.139 22.3977 114.151 21.3864C114.139 20.2045 115.446 19.3864 117.162 19.3864C119.06 19.3864 120.06 20.4205 120.378 21.5682L124.128 21.1591Z" fill="#5F30A2"/>
<path d="M33.4497 23.4713C31.1949 19.9263 27.3547 17.8095 23.177 17.8095C18.9997 17.8095 15.1592 19.9263 12.9048 23.4713L7.47162 32.0136C6.57017 33.4311 6.15423 35.0682 6.26854 36.7477C6.38284 38.4275 7.01707 39.9918 8.1024 41.2721C9.1885 42.5521 10.6236 43.4267 12.2526 43.8019C13.8815 44.1768 15.5514 44.0169 17.0813 43.3392L17.1811 43.2945C21.0312 41.622 25.4318 41.637 29.2723 43.3392C30.2628 43.7781 31.3122 44 32.3712 44C32.9469 44 33.5261 43.9341 34.0999 43.8023C35.7289 43.4274 37.164 42.5528 38.2505 41.2729C39.3362 39.993 39.9708 38.4283 40.0855 36.7484C40.2002 35.0682 39.7843 33.4311 38.8828 32.0132L33.4497 23.4713ZM31.5 34C30.118 35.6282 32.9459 33.8623 31 33C28.6871 31.9747 30.4834 32.5 28 32.5C25.5189 32.5 22 40 15.9012 40.6279V41.2721C15.0658 40.1149 25.8667 40.9589 24.5 39.3488C23.1195 37.7201 26.3531 36.3035 27.5 34.5L26 35C27.7119 32.3084 24.8281 35 28 35C31.1719 35 29.7877 31.8084 31.5 34.5L33 36.7477C34.1473 38.552 32.8812 32.3721 31.5 34Z" fill="#5F30A2"/>
<path d="M8.92625 23.4574C10.5305 22.8352 11.7492 21.5297 12.3582 19.7812C12.9373 18.1174 12.8898 16.2391 12.2239 14.4917C11.5576 12.7456 10.3457 11.3201 8.81166 10.4775C7.19944 9.59275 5.42862 9.44867 3.82702 10.0721C0.60486 11.3232 -0.873798 15.3443 0.53125 19.0378C1.65362 21.9776 4.27134 23.8334 6.9179 23.8334C7.59368 23.8334 8.27135 23.7123 8.92625 23.4574ZM3.2518 17.9802C2.42387 15.8038 3.77699 22.669 5.5 22C5.81114 21.8789 5.51437 12.6383 5.85017 12.6383C6.36848 12.6383 2.98473 13.2168 3.5 13.5C4.42658 14.0085 3.78532 19.616 4.2027 20.71C4.6197 21.8048 5.84984 20.4957 5.5 21.5C5.17938 22.4204 8.67355 20.4016 7.88053 20.7093L7.87901 20.71C6.15827 21.3798 4.08238 20.1548 3.2518 17.9802Z" fill="#5F30A2"/>
<path d="M19.5309 16.7619C23.5517 16.7619 26.823 13.0027 26.823 8.38191C26.823 3.76002 23.5517 0 19.5309 0C15.5105 0 12.2396 3.76002 12.2396 8.38191C12.2396 13.0027 15.5105 16.7619 19.5309 16.7619ZM19 15C21.416 15 18.5 11.1184 18.5 14.1216C18.5 17.1236 21.9469 13.8267 19.5309 13.8267C17.1149 13.8267 19 16.5021 19 13.5C19 10.4968 16.584 15 19 15Z" fill="#5F30A2"/>
<path d="M32.2402 18.813C32.8564 19.0201 33.4853 19.1191 34.1113 19.1191C37.0323 19.1191 39.879 16.9662 40.9653 13.6576C41.5908 11.7531 41.5497 9.73925 40.8494 7.98753C40.1167 6.15405 38.7588 4.82298 37.0255 4.2392C35.2922 3.65618 33.4167 3.89917 31.7456 4.92384C30.1492 5.90304 28.926 7.49086 28.3016 9.3954C26.983 13.4131 28.7498 17.6378 32.2402 18.813ZM38.5 12C38.9079 10.7564 36.4922 12.6182 37.5 12C38.4323 11.4281 31.981 10.7616 32.8952 11.0691C33.809 11.3771 33.7023 10.8996 34.1113 11.9228C34.5531 13.0284 29.9086 11.2564 29.5 12.5C28.6854 14.9818 35.13 16.6919 33.1548 16.0275C31.1812 15.3627 37.6854 14.4818 38.5 12Z" fill="#5F30A2"/>
<path d="M47.6312 17.8881L47.6301 17.8869C44.8221 15.797 40.6227 16.7029 38.2682 19.9073C35.9159 23.1133 36.2837 27.4233 39.0874 29.5148C40.1099 30.278 41.3181 30.6429 42.5546 30.6429C44.7098 30.6429 46.9519 29.5345 48.4504 27.4964C50.8027 24.2904 50.4353 19.9803 47.6312 17.8881ZM46.0821 25.7299C44.6917 27.6208 42.341 28.248 40.841 27.1285C39.3421 26.0105 43.1135 29.3861 44.5 27.4964C45.4217 26.242 45.2592 27.1285 46.5 27.1285C47.1275 27.1285 47 24.5 46 25.5C47.4977 26.6192 47.4674 23.8413 46.0821 25.7299Z" fill="#5F30A2"/>
</svg>
